<svg id="visual" viewBox="0 0 1400 800" width="1400" height="800" xmlns="http://www.w3.org/2000/svg" xmlns:xlink="http://www.w3.org/1999/xlink" version="1.1"><path d="M0 105L127 129L255 89L382 113L509 89L636 57L764 129L891 49L1018 137L1145 97L1273 113L1400 49L1400 0L1273 0L1145 0L1018 0L891 0L764 0L636 0L509 0L382 0L255 0L127 0L0 0Z" fill="#00cc8e"></path><path d="M0 177L127 185L255 193L382 161L509 177L636 121L764 161L891 153L1018 201L1145 193L1273 217L1400 145L1400 47L1273 111L1145 95L1018 135L891 47L764 127L636 55L509 87L382 111L255 87L127 127L0 103Z" fill="#00c38c"></path><path d="M0 217L127 225L255 217L382 225L509 233L636 177L764 185L891 177L1018 249L1145 249L1273 281L1400 169L1400 143L1273 215L1145 191L1018 199L891 151L764 159L636 119L509 175L382 159L255 191L127 183L0 175Z" fill="#00b98a"></path><path d="M0 433L127 473L255 393L382 401L509 369L636 329L764 297L891 369L1018 401L1145 353L1273 425L1400 337L1400 167L1273 279L1145 247L1018 247L891 175L764 183L636 175L509 231L382 223L255 215L127 223L0 215Z" fill="#00b087"></path><path d="M0 529L127 609L255 561L382 593L509 521L636 609L764 601L891 585L1018 601L1145 553L1273 617L1400 489L1400 335L1273 423L1145 351L1018 399L891 367L764 295L636 327L509 367L382 399L255 391L127 471L0 431Z" fill="#00a784"></path><path d="M0 625L127 665L255 673L382 649L509 625L636 673L764 657L891 657L1018 689L1145 625L1273 665L1400 633L1400 487L1273 615L1145 551L1018 599L891 583L764 599L636 607L509 519L382 591L255 559L127 607L0 527Z" fill="#009e80"></path><path d="M0 697L127 705L255 721L382 721L509 697L636 729L764 721L891 689L1018 721L1145 681L1273 729L1400 697L1400 631L1273 663L1145 623L1018 687L891 655L764 655L636 671L509 623L382 647L255 671L127 663L0 623Z" fill="#00957c"></path><path d="M0 729L127 753L255 753L382 761L509 737L636 753L764 777L891 729L1018 745L1145 729L1273 753L1400 753L1400 695L1273 727L1145 679L1018 719L891 687L764 719L636 727L509 695L382 719L255 719L127 703L0 695Z" fill="#008c78"></path><path d="M0 801L127 801L255 801L382 801L509 801L636 801L764 801L891 801L1018 801L1145 801L1273 801L1400 801L1400 751L1273 751L1145 727L1018 743L891 727L764 775L636 751L509 735L382 759L255 751L127 751L0 727Z" fill="#038373"></path></svg>